# xmcd
#
# Track frame offsets: 
#        150
#        14077
#        29022
#        43674
#        56877
#        70199
#        82662
#        98645
#        114956
#        130411
#        147001
#        162428
#        175575
#        192048
#        208976
#        221578
#        240859
#
# Disc length: 3420 seconds
#
# Revision: 2
# Processed by: cddbd v1.5.2PL0 Copyright (c) Steve Scherf et al.
# Submitted via: ExactAudioCopy v1.1
#
DISCID=ea0d5a11
DTITLE=Michael Bublé - To Be Loved
DYEAR=2013
DGENRE=Jazz
TTITLE0=You Make Me Feel So Young
TTITLE1=It's A Beautiful Day
TTITLE2=To Love Somebody
TTITLE3=Who's Lovin' You
TTITLE4=Something Stupid (ft. Reese Witherspoon)
TTITLE5=Come Dance With Me
TTITLE6=Close Your Eyes
TTITLE7=After All (ft. Bryan Adams)
TTITLE8=Have I Told You Lately That I Love You (with Naturally 7)
TTITLE9=To Be Loved
TTITLE10=You've Got A Friend In Me
TTITLE11=Nevertheless (I'm In Love With You) (ft. The Puppini Sisters)
TTITLE12=I Got It Easy
TTITLE13=Young At Heart
TTITLE14=Be My Baby (Bonus Track)
TTITLE15=It's A Beautiful Day (Swing Mix) (Bonus Track)
TTITLE16=My Melancholy Baby (Bonus Track)
EXTD=YEAR: 2013
EXTT0=
EXTT1=
EXTT2=
EXTT3=
EXTT4=
EXTT5=
EXTT6=
EXTT7=
EXTT8=
EXTT9=
EXTT10=
EXTT11=
EXTT12=
EXTT13=
EXTT14=
EXTT15=
EXTT16=
PLAYORDER=
